<?xml version="1.0" encoding="utf-8"?>
<!-- Generator: Adobe Illustrator 22.1.0, SVG Export Plug-In . SVG Version: 6.00 Build 0)  -->
<svg version="1.1" id="Ebene_2" xmlns="http://www.w3.org/2000/svg" xmlns:xlink="http://www.w3.org/1999/xlink" x="0px" y="0px"
	 viewBox="0 0 354.2816772 151" style="enable-background:new 0 0 354.2816772 151;" xml:space="preserve">
<style type="text/css">
	.st0{fill:#007AC2;}
	.st1{fill:#FFFFFF;}
</style>
<g>
	<rect class="st0" width="154.3334961" height="151"/>
	<path d="M255.7636871,122.6948013l15.1259918-14.9990005h5.085907l-15.894989,15.8471985l20.7119141,20.6450043h-4.7920227
		l-18.1914062-18.0884018l-1.8778839,1.6548004v16.4336014h-3.6646118V74.7641983h3.4971008V122.6948013z"/>
	<path d="M330.3745117,108.7285004v4.2041016c0.0820007-0.0825043,1.3183899-1.5659027,2.3085938-2.3076019
		c1.1532898-0.9897003,4.2860718-2.4912033,8.5732727-2.4912033c1.4013062,0,4.7812195,0.3348999,7.9960022,2.7256012
		c0.1651306,0.0825043,1.0722961,0.8242035,1.2373962,0.9892044c0.5761108,0.494194,1.9785156,1.9785004,2.7197266,3.9570999
		c0.6591797,1.730896,0.906189,2.4857941,1.0721741,6.0307007v22.3682022h-3.5272827v-22.2036057
		c0-0.6596985-0.0820007-1.3189011-0.1650085-2.0610962c-0.3301086-3.0503006-1.6777954-5.4409027-4.3974915-6.7597046
		c-1.8955078-0.989296-4.0498047-1.272995-4.9561157-1.272995c-4.2049866,0-8.3885803,1.9423981-9.8719788,5.6518936
		c-0.8242188,1.9785004-0.9072876,5.1015015-0.9072876,5.760704v20.8828049h-3.6845093v-35.4741058H330.3745117z"/>
	<path class="st1" d="M139.4872894,121.9263c-6.8349915,9.1035004-17.9633942,14.7089996-29.9945908,14.7093964
		c-20.6387024,0-37.3686981-17.2464981-37.3686981-38.5213928c0-21.2754059,16.7299957-38.2393036,37.3686981-38.2393036
		c12.3838043,0,23.3602982,5.9263,30.1601028,15.4897003l6.7079926-5.5136032
		c-8.5018921-11.5014954-21.6327972-18.7411957-36.8680954-18.7416954c-25.7343979,0-46.5951996,20.9389-46.5951996,47.1185951
		c0,26.1792068,20.8608017,47.4013977,46.5951996,47.4013977c14.9442978,0,28.2450943-7.1566925,36.771492-18.2851944
		L139.4872894,121.9263z"/>
	<path d="M300.5307922,108.2832031c-10.1347961,0-18.3496094,8.2143936-18.3496094,18.3490982
		c0,10.1343002,8.2148132,18.3487015,18.3496094,18.3487015c10.1328125,0,18.3475952-8.2144012,18.3475952-18.3487015
		C318.8783875,116.4975967,310.6636047,108.2832031,300.5307922,108.2832031z M300.5307922,141.6625977
		c-8.3017883,0-15.0312805-6.7290039-15.0312805-15.0302963c0-8.3017044,6.7294922-15.0307007,15.0312805-15.0307007
		c8.2998047,0,15.0292969,6.7289963,15.0292969,15.0307007
		C315.5600891,134.9335938,308.8305969,141.6625977,300.5307922,141.6625977z"/>
	<path d="M237.2201996,74.5220032l-0.0097046,40.9188995c-3.3536072-4.3540039-8.6186981-7.1582031-14.5391083-7.1576996
		c-10.1293945,0-18.3407898,8.2113953-18.3407898,18.3412933c0,10.1294098,8.2113953,18.3408051,18.3407898,18.3408051
		c5.8794098,0,11.1123047-2.7666016,14.4687042-7.0693054l0.0801086,6.3032074h3.4971008V74.5220032H237.2201996z
		 M222.5771942,141.5917969c-8.2881012,0-15.006897-6.7187958-15.006897-15.0063934
		c0-8.288002,6.7187958-15.0068054,15.006897-15.0068054c8.2875977,0,15.0063019,6.7188034,15.0063019,15.0068054
		C237.5834961,134.8730011,230.8647919,141.5917969,222.5771942,141.5917969z"/>
	<path d="M193.0522919,108.6669998l-0.0097961,6.7739029c-3.3535004-4.3540039-8.6186981-7.1582031-14.5391083-7.1576996
		c-10.1293945,0-18.3407898,8.2113953-18.3407898,18.3412933c0,10.1294098,8.2113953,18.3408051,18.3407898,18.3408051
		c5.8794098,0,11.1123047-2.7666016,14.468811-7.0693054l0.0800934,6.3032074h3.4970093v-35.5322037H193.0522919z
		 M178.4091949,141.5917969c-8.2881012,0-15.006897-6.7187958-15.006897-15.0063934
		c0-8.288002,6.7187958-15.0068054,15.006897-15.0068054c8.2875977,0,15.0063019,6.7188034,15.0063019,15.0068054
		C193.4154968,134.8730011,186.6967926,141.5917969,178.4091949,141.5917969z"/>
</g>
</svg>
