<?xml version="1.0" encoding="utf-8"?>
<!-- Generator: Adobe Illustrator 19.2.1, SVG Export Plug-In . SVG Version: 6.00 Build 0)  -->
<svg version="1.1" id="Ebene_1" xmlns="http://www.w3.org/2000/svg" xmlns:xlink="http://www.w3.org/1999/xlink" x="0px" y="0px"
	 viewBox="0 0 44 44" style="enable-background:new 0 0 44 44;" xml:space="preserve">
<style type="text/css">
	.st0{opacity:0.39;}
	.st1{fill:#FFFFFF;}
</style>
<g>
	<g>
		<g>
			<g>
				<g>
					<g class="st0">
						<g>
							<g>
								<path class="st1" d="M22,1.4C10.6,1.4,1.4,10.6,1.4,22S10.6,42.6,22,42.6S42.6,33.4,42.6,22S33.4,1.4,22,1.4"/>
							</g>
						</g>
					</g>
				</g>
			</g>
			<g>
				<g>
					<path class="st1" d="M19.1,35.1c-0.3,0-0.6-0.1-0.8-0.3c-0.4-0.4-0.4-1.2,0-1.6l11.1-11L18.1,10.8c-0.4-0.4-0.4-1.2,0-1.6
						c0.4-0.4,1.2-0.4,1.6,0l12.9,12.9L19.9,34.7C19.7,34.9,19.4,35.1,19.1,35.1z"/>
				</g>
			</g>
		</g>
	</g>
</g>
</svg>
