<?xml version="1.0" encoding="utf-8"?>
<!-- Generator: Adobe Illustrator 19.2.1, SVG Export Plug-In . SVG Version: 6.00 Build 0)  -->
<svg version="1.1" id="Ebene_1" xmlns="http://www.w3.org/2000/svg" xmlns:xlink="http://www.w3.org/1999/xlink" x="0px" y="0px"
	 viewBox="0 0 44 44" style="enable-background:new 0 0 44 44;" xml:space="preserve">
<style type="text/css">
	.st0{opacity:0.39;}
	.st1{fill:#FFFFFF;}
</style>
<g>
	<g>
		<g>
			<g>
				<g>
					<g class="st0">
						<g>
							<path class="st1" d="M22,42.6c11.4,0,20.6-9.2,20.6-20.6S33.4,1.4,22,1.4S1.4,10.6,1.4,22S10.6,42.6,22,42.6"/>
						</g>
					</g>
				</g>
			</g>
			<g>
				<g>
					<path class="st1" d="M25.1,35.1c-0.3,0-0.6-0.1-0.8-0.3L11.4,21.9L24.1,9.2c0.4-0.4,1.2-0.4,1.6,0c0.4,0.4,0.4,1.2,0,1.6
						L14.6,21.9l11.3,11.2c0.5,0.4,0.5,1.2,0,1.6C25.7,34.9,25.4,35.1,25.1,35.1z"/>
				</g>
			</g>
		</g>
	</g>
</g>
</svg>
